<svg xmlns="http://www.w3.org/2000/svg" viewBox="0 0 475 447">
<path d="M 317,124 L 317,125 L 318,125 L 318,124 Z" fill="#6750a4"/><path d="M 276,9 L 275,10 L 272,10 L 271,11 L 270,11 L 269,12 L 268,12 L 265,15 L 264,15 L 263,16 L 263,17 L 260,20 L 260,21 L 259,22 L 259,24 L 258,25 L 258,27 L 257,28 L 257,36 L 258,37 L 258,39 L 259,40 L 259,42 L 260,43 L 260,44 L 262,46 L 262,47 L 263,48 L 262,49 L 262,50 L 261,51 L 261,53 L 259,55 L 259,56 L 256,59 L 256,60 L 255,61 L 255,62 L 253,64 L 253,65 L 252,66 L 251,66 L 252,67 L 250,69 L 250,70 L 247,73 L 247,74 L 246,75 L 246,76 L 244,78 L 244,79 L 242,81 L 242,82 L 241,83 L 241,84 L 239,86 L 239,87 L 237,89 L 237,90 L 236,91 L 236,97 L 237,98 L 237,100 L 238,101 L 238,102 L 239,103 L 239,105 L 240,106 L 240,107 L 241,108 L 241,111 L 242,112 L 242,113 L 243,114 L 243,117 L 244,118 L 244,119 L 245,120 L 245,127 L 244,128 L 244,132 L 245,133 L 245,135 L 246,136 L 246,137 L 251,142 L 252,142 L 253,143 L 262,143 L 263,142 L 264,142 L 265,141 L 266,141 L 276,131 L 277,131 L 279,129 L 280,129 L 282,127 L 283,127 L 284,126 L 285,126 L 286,125 L 287,125 L 288,124 L 289,124 L 290,123 L 291,123 L 292,122 L 294,122 L 295,121 L 297,121 L 298,120 L 300,120 L 301,119 L 305,119 L 306,118 L 309,118 L 310,117 L 317,117 L 318,116 L 343,116 L 344,117 L 350,117 L 351,118 L 354,118 L 355,119 L 358,119 L 359,120 L 361,120 L 362,121 L 364,121 L 365,122 L 367,122 L 368,123 L 369,123 L 370,124 L 371,124 L 372,125 L 373,125 L 374,126 L 375,126 L 376,127 L 377,127 L 378,128 L 379,128 L 381,130 L 382,130 L 384,132 L 385,132 L 388,135 L 389,135 L 403,149 L 403,150 L 406,153 L 406,154 L 408,156 L 408,157 L 409,158 L 409,159 L 411,161 L 411,162 L 412,163 L 412,164 L 413,165 L 413,166 L 414,167 L 414,168 L 415,169 L 415,171 L 416,172 L 416,173 L 417,174 L 417,177 L 418,178 L 418,180 L 419,181 L 419,184 L 420,185 L 420,188 L 421,189 L 421,195 L 422,196 L 422,218 L 421,219 L 421,226 L 420,227 L 420,231 L 419,232 L 419,236 L 418,237 L 418,239 L 417,240 L 417,243 L 416,244 L 416,246 L 415,247 L 415,249 L 414,250 L 414,252 L 413,253 L 413,254 L 412,255 L 412,256 L 411,257 L 411,258 L 410,259 L 410,261 L 409,262 L 409,263 L 408,264 L 408,265 L 407,266 L 407,267 L 405,269 L 405,270 L 404,271 L 404,272 L 403,273 L 403,274 L 401,276 L 401,277 L 399,279 L 399,280 L 398,281 L 398,282 L 395,285 L 395,286 L 393,288 L 393,289 L 389,293 L 389,294 L 384,299 L 384,300 L 375,309 L 375,310 L 367,318 L 366,318 L 355,329 L 354,329 L 348,335 L 347,335 L 342,340 L 341,340 L 337,344 L 336,344 L 333,347 L 332,347 L 328,351 L 327,351 L 324,354 L 323,354 L 320,357 L 319,357 L 316,360 L 315,360 L 313,362 L 312,362 L 310,364 L 309,364 L 306,367 L 305,367 L 303,369 L 302,369 L 300,371 L 299,371 L 297,373 L 296,373 L 294,375 L 293,375 L 290,378 L 289,378 L 287,380 L 286,380 L 285,381 L 284,381 L 282,383 L 281,383 L 279,385 L 278,385 L 277,386 L 276,386 L 274,388 L 273,388 L 271,390 L 270,390 L 269,391 L 268,391 L 266,393 L 265,393 L 263,395 L 262,395 L 261,396 L 260,396 L 258,398 L 257,398 L 255,400 L 254,400 L 253,401 L 252,401 L 250,403 L 249,403 L 247,405 L 246,405 L 245,406 L 244,406 L 242,408 L 241,408 L 239,410 L 238,410 L 237,411 L 235,411 L 233,409 L 232,409 L 230,407 L 229,407 L 228,406 L 227,406 L 225,404 L 224,404 L 222,402 L 221,402 L 220,401 L 219,401 L 217,399 L 216,399 L 214,397 L 213,397 L 212,396 L 211,396 L 209,394 L 208,394 L 206,392 L 205,392 L 204,391 L 203,391 L 201,389 L 200,389 L 198,387 L 197,387 L 195,385 L 194,385 L 193,384 L 192,384 L 190,382 L 189,382 L 187,380 L 186,380 L 184,378 L 183,378 L 182,377 L 181,377 L 179,375 L 178,375 L 176,373 L 175,373 L 172,370 L 171,370 L 169,368 L 168,368 L 166,366 L 165,366 L 163,364 L 162,364 L 159,361 L 158,361 L 155,358 L 154,358 L 151,355 L 150,355 L 148,353 L 147,353 L 143,349 L 142,349 L 139,346 L 138,346 L 134,342 L 133,342 L 128,337 L 127,337 L 122,332 L 121,332 L 114,325 L 113,325 L 91,303 L 91,302 L 85,296 L 85,295 L 82,292 L 82,291 L 78,287 L 78,286 L 76,284 L 76,283 L 74,281 L 74,280 L 72,278 L 72,277 L 70,275 L 70,274 L 69,273 L 69,272 L 68,271 L 68,270 L 66,268 L 66,267 L 65,266 L 65,265 L 64,264 L 64,263 L 63,262 L 63,261 L 62,260 L 62,259 L 61,258 L 61,256 L 60,255 L 60,254 L 59,253 L 59,251 L 58,250 L 58,248 L 57,247 L 57,246 L 56,245 L 56,242 L 55,241 L 55,239 L 54,238 L 54,234 L 53,233 L 53,230 L 52,229 L 52,224 L 51,223 L 51,213 L 50,212 L 50,202 L 51,201 L 51,192 L 52,191 L 52,187 L 53,186 L 53,183 L 54,182 L 54,179 L 55,178 L 55,176 L 56,175 L 56,173 L 57,172 L 57,171 L 58,170 L 58,168 L 59,167 L 59,166 L 60,165 L 60,164 L 61,163 L 61,162 L 62,161 L 62,160 L 64,158 L 64,157 L 65,156 L 65,155 L 68,152 L 68,151 L 71,148 L 71,147 L 81,137 L 82,137 L 86,133 L 87,133 L 89,131 L 90,131 L 92,129 L 93,129 L 95,127 L 96,127 L 97,126 L 98,126 L 99,125 L 100,125 L 101,124 L 103,124 L 104,123 L 105,123 L 106,122 L 107,122 L 108,121 L 110,121 L 111,120 L 113,120 L 114,119 L 117,119 L 118,118 L 122,118 L 123,117 L 128,117 L 129,116 L 149,116 L 150,117 L 155,117 L 156,118 L 158,118 L 159,119 L 162,119 L 163,120 L 164,120 L 165,121 L 167,121 L 168,122 L 169,122 L 170,123 L 171,123 L 172,124 L 173,124 L 175,126 L 176,126 L 177,127 L 178,127 L 180,129 L 181,129 L 183,131 L 184,131 L 188,135 L 189,135 L 196,142 L 197,142 L 207,152 L 207,153 L 216,162 L 216,163 L 217,164 L 217,165 L 202,180 L 201,179 L 200,179 L 199,178 L 198,178 L 197,177 L 196,177 L 195,176 L 194,176 L 193,175 L 191,175 L 190,174 L 188,174 L 187,173 L 184,173 L 183,172 L 178,172 L 177,171 L 166,171 L 165,172 L 159,172 L 158,173 L 155,173 L 154,174 L 152,174 L 151,175 L 149,175 L 148,176 L 147,176 L 146,177 L 145,177 L 144,178 L 143,178 L 141,180 L 140,180 L 139,181 L 138,181 L 134,185 L 133,185 L 93,225 L 93,226 L 92,227 L 92,228 L 91,229 L 91,238 L 92,239 L 92,240 L 97,245 L 98,245 L 99,246 L 101,246 L 102,247 L 106,247 L 107,246 L 109,246 L 110,245 L 111,245 L 113,243 L 114,243 L 154,203 L 155,203 L 156,202 L 157,202 L 158,201 L 159,201 L 160,200 L 162,200 L 163,199 L 167,199 L 168,198 L 174,198 L 175,199 L 179,199 L 181,201 L 180,202 L 179,202 L 128,253 L 128,254 L 127,255 L 126,255 L 125,256 L 125,257 L 123,259 L 123,260 L 122,261 L 122,264 L 121,265 L 121,267 L 122,268 L 122,271 L 124,273 L 124,274 L 127,277 L 128,277 L 129,278 L 130,278 L 131,279 L 139,279 L 140,278 L 141,278 L 142,277 L 143,277 L 200,220 L 201,221 L 201,222 L 202,223 L 202,227 L 203,228 L 202,229 L 202,230 L 203,231 L 202,232 L 202,237 L 201,238 L 201,240 L 200,241 L 200,242 L 199,243 L 199,244 L 198,245 L 198,246 L 196,248 L 196,249 L 155,290 L 155,291 L 154,292 L 154,294 L 153,295 L 153,300 L 154,301 L 154,303 L 155,304 L 155,305 L 159,309 L 160,309 L 161,310 L 162,310 L 163,311 L 170,311 L 171,310 L 173,310 L 176,307 L 177,307 L 177,306 L 178,305 L 179,305 L 182,302 L 182,301 L 183,300 L 184,300 L 184,299 L 185,298 L 186,298 L 189,295 L 189,294 L 190,293 L 191,293 L 191,292 L 192,291 L 193,291 L 194,290 L 194,289 L 195,288 L 196,288 L 196,287 L 197,286 L 198,286 L 198,285 L 202,281 L 203,281 L 203,280 L 204,279 L 205,279 L 205,278 L 209,274 L 210,274 L 210,273 L 218,265 L 218,264 L 220,262 L 220,261 L 222,259 L 222,258 L 223,257 L 223,256 L 224,255 L 224,254 L 225,253 L 225,252 L 226,251 L 226,249 L 227,248 L 227,246 L 228,245 L 228,241 L 229,240 L 229,219 L 228,218 L 228,215 L 227,214 L 227,212 L 226,211 L 226,209 L 225,208 L 225,206 L 224,205 L 224,204 L 223,203 L 223,202 L 221,200 L 221,199 L 236,184 L 335,283 L 335,284 L 352,301 L 353,301 L 353,300 L 354,299 L 354,298 L 355,297 L 355,295 L 356,294 L 356,293 L 357,292 L 357,291 L 358,290 L 358,289 L 359,288 L 359,287 L 360,286 L 360,285 L 361,284 L 361,283 L 362,282 L 362,281 L 363,280 L 363,278 L 364,277 L 364,275 L 365,274 L 365,271 L 366,270 L 366,267 L 367,266 L 367,262 L 368,261 L 368,235 L 367,234 L 367,231 L 366,230 L 366,227 L 365,226 L 365,224 L 364,223 L 364,221 L 363,220 L 363,218 L 362,217 L 362,216 L 361,215 L 361,214 L 359,212 L 359,211 L 358,210 L 358,209 L 356,207 L 356,206 L 354,204 L 354,203 L 349,198 L 349,197 L 311,159 L 310,159 L 308,157 L 307,157 L 306,156 L 305,156 L 304,155 L 303,155 L 302,154 L 300,154 L 299,153 L 296,153 L 295,152 L 284,152 L 283,153 L 280,153 L 279,154 L 277,154 L 276,155 L 275,155 L 274,156 L 273,156 L 271,158 L 270,158 L 267,161 L 266,161 L 259,168 L 240,149 L 240,148 L 232,140 L 232,139 L 211,118 L 210,118 L 205,113 L 204,113 L 201,110 L 200,110 L 197,107 L 196,107 L 194,105 L 193,105 L 192,104 L 191,104 L 189,102 L 188,102 L 187,101 L 186,101 L 185,100 L 184,100 L 182,98 L 180,98 L 179,97 L 178,97 L 177,96 L 176,96 L 175,95 L 173,95 L 172,94 L 171,94 L 170,93 L 167,93 L 166,92 L 164,92 L 163,91 L 159,91 L 158,90 L 154,90 L 153,89 L 127,89 L 126,90 L 120,90 L 119,91 L 115,91 L 114,92 L 111,92 L 110,93 L 107,93 L 106,94 L 104,94 L 103,95 L 101,95 L 100,96 L 98,96 L 97,97 L 96,97 L 95,98 L 93,98 L 92,99 L 91,99 L 90,100 L 89,100 L 88,101 L 87,101 L 86,102 L 85,102 L 84,103 L 83,103 L 82,104 L 81,104 L 79,106 L 78,106 L 76,108 L 75,108 L 73,110 L 72,110 L 70,112 L 69,112 L 64,117 L 63,117 L 52,128 L 52,129 L 47,134 L 47,135 L 45,137 L 45,138 L 43,140 L 43,141 L 41,143 L 41,144 L 39,146 L 39,147 L 38,148 L 38,149 L 37,150 L 37,151 L 36,152 L 36,153 L 35,154 L 35,155 L 34,156 L 34,157 L 33,158 L 33,160 L 32,161 L 32,162 L 31,163 L 31,165 L 30,166 L 30,168 L 29,169 L 29,170 L 28,171 L 28,174 L 27,175 L 27,178 L 26,179 L 26,183 L 24,185 L 23,185 L 22,184 L 21,184 L 20,183 L 12,183 L 8,187 L 8,188 L 7,189 L 7,190 L 6,191 L 6,192 L 5,193 L 5,196 L 4,197 L 4,220 L 5,221 L 5,226 L 6,227 L 6,230 L 7,231 L 7,233 L 8,234 L 8,236 L 9,237 L 9,239 L 10,240 L 10,242 L 11,243 L 11,244 L 12,245 L 12,246 L 13,247 L 13,248 L 14,249 L 14,250 L 16,252 L 16,253 L 18,255 L 18,256 L 23,261 L 24,261 L 25,262 L 26,262 L 27,263 L 34,263 L 35,264 L 35,266 L 36,267 L 36,268 L 37,269 L 37,271 L 38,272 L 38,273 L 39,274 L 39,275 L 40,276 L 40,277 L 41,278 L 41,279 L 42,280 L 42,281 L 44,283 L 44,284 L 45,285 L 45,286 L 47,288 L 47,289 L 48,290 L 48,291 L 50,293 L 50,294 L 52,296 L 52,297 L 54,299 L 54,300 L 56,302 L 56,303 L 59,306 L 59,307 L 63,311 L 63,312 L 68,317 L 68,318 L 75,325 L 75,326 L 76,326 L 78,328 L 78,329 L 86,337 L 87,337 L 99,349 L 100,349 L 106,355 L 107,355 L 112,360 L 113,360 L 117,364 L 118,364 L 122,368 L 123,368 L 126,371 L 127,371 L 130,374 L 131,374 L 134,377 L 135,377 L 138,380 L 139,380 L 142,383 L 143,383 L 145,385 L 146,385 L 149,388 L 150,388 L 152,390 L 153,390 L 155,392 L 156,392 L 158,394 L 159,394 L 162,397 L 163,397 L 165,399 L 166,399 L 167,400 L 168,400 L 170,402 L 171,402 L 173,404 L 174,404 L 176,406 L 177,406 L 179,408 L 180,408 L 181,409 L 182,409 L 184,411 L 185,411 L 187,413 L 188,413 L 189,414 L 190,414 L 192,416 L 193,416 L 195,418 L 196,418 L 197,419 L 198,419 L 200,421 L 201,421 L 203,423 L 204,423 L 205,424 L 206,424 L 208,426 L 209,426 L 211,428 L 212,428 L 213,429 L 214,429 L 216,431 L 217,431 L 219,433 L 220,433 L 221,434 L 222,434 L 224,436 L 225,436 L 227,438 L 228,438 L 229,439 L 230,439 L 232,441 L 233,441 L 235,443 L 237,443 L 238,442 L 239,442 L 241,440 L 242,440 L 243,439 L 244,439 L 246,437 L 247,437 L 249,435 L 250,435 L 251,434 L 252,434 L 254,432 L 255,432 L 257,430 L 258,430 L 259,429 L 260,429 L 262,427 L 263,427 L 265,425 L 266,425 L 268,423 L 269,423 L 270,422 L 271,422 L 273,420 L 274,420 L 276,418 L 277,418 L 278,417 L 279,417 L 281,415 L 282,415 L 284,413 L 285,413 L 286,412 L 287,412 L 289,410 L 290,410 L 292,408 L 293,408 L 294,407 L 295,407 L 297,405 L 298,405 L 300,403 L 301,403 L 303,401 L 304,401 L 306,399 L 307,399 L 309,397 L 310,397 L 312,395 L 313,395 L 315,393 L 316,393 L 318,391 L 319,391 L 321,389 L 322,389 L 325,386 L 326,386 L 328,384 L 329,384 L 332,381 L 333,381 L 335,379 L 336,379 L 339,376 L 340,376 L 343,373 L 344,373 L 348,369 L 349,369 L 352,366 L 353,366 L 357,362 L 358,362 L 363,357 L 364,357 L 369,352 L 370,352 L 377,345 L 378,345 L 401,322 L 401,321 L 407,315 L 407,314 L 412,309 L 412,308 L 415,305 L 415,304 L 417,302 L 417,301 L 420,298 L 420,297 L 422,295 L 422,294 L 424,292 L 424,291 L 425,290 L 425,289 L 427,287 L 427,286 L 428,285 L 428,284 L 429,283 L 429,282 L 431,280 L 431,279 L 432,278 L 432,277 L 433,276 L 433,275 L 434,274 L 434,273 L 435,272 L 435,270 L 436,269 L 436,268 L 437,267 L 437,266 L 438,265 L 438,264 L 439,263 L 440,264 L 448,264 L 450,262 L 451,262 L 456,257 L 456,256 L 458,254 L 458,253 L 460,251 L 460,250 L 461,249 L 461,248 L 462,247 L 462,245 L 463,244 L 463,243 L 464,242 L 464,240 L 465,239 L 465,237 L 466,236 L 466,233 L 467,232 L 467,229 L 468,228 L 468,224 L 469,223 L 469,199 L 468,198 L 468,194 L 467,193 L 467,191 L 466,190 L 466,189 L 464,187 L 464,186 L 462,184 L 461,184 L 460,183 L 452,183 L 450,185 L 449,185 L 448,186 L 447,185 L 447,181 L 446,180 L 446,177 L 445,176 L 445,173 L 444,172 L 444,170 L 443,169 L 443,167 L 442,166 L 442,164 L 441,163 L 441,162 L 440,161 L 440,159 L 439,158 L 439,157 L 438,156 L 438,155 L 437,154 L 437,153 L 436,152 L 436,151 L 435,150 L 435,149 L 434,148 L 434,147 L 432,145 L 432,144 L 431,143 L 431,142 L 429,140 L 429,139 L 426,136 L 426,135 L 423,132 L 423,131 L 406,114 L 405,114 L 402,111 L 401,111 L 399,109 L 398,109 L 396,107 L 395,107 L 393,105 L 392,105 L 391,104 L 390,104 L 389,103 L 388,103 L 387,102 L 386,102 L 384,100 L 382,100 L 381,99 L 380,99 L 379,98 L 378,98 L 377,97 L 375,97 L 374,96 L 373,96 L 372,95 L 369,95 L 368,94 L 367,94 L 366,93 L 362,93 L 361,92 L 359,92 L 358,91 L 353,91 L 352,90 L 347,90 L 346,89 L 315,89 L 314,90 L 308,90 L 307,91 L 302,91 L 301,92 L 298,92 L 297,93 L 294,93 L 293,94 L 291,94 L 290,95 L 287,95 L 286,96 L 285,96 L 284,97 L 282,97 L 281,98 L 279,98 L 277,100 L 275,100 L 274,101 L 273,101 L 272,102 L 271,102 L 269,104 L 268,104 L 267,105 L 266,105 L 264,107 L 263,107 L 260,110 L 259,110 L 255,114 L 254,114 L 251,117 L 250,117 L 249,116 L 249,112 L 248,111 L 248,108 L 247,107 L 247,101 L 246,100 L 246,96 L 245,95 L 246,94 L 246,93 L 247,92 L 247,91 L 251,87 L 251,86 L 254,83 L 254,82 L 256,80 L 256,79 L 258,77 L 258,76 L 262,72 L 262,71 L 264,69 L 264,68 L 267,65 L 267,64 L 270,61 L 270,60 L 275,55 L 287,55 L 288,54 L 289,54 L 290,53 L 291,53 L 292,52 L 293,52 L 294,51 L 295,51 L 298,48 L 298,47 L 301,44 L 301,43 L 302,42 L 302,40 L 303,39 L 303,35 L 304,34 L 304,31 L 303,30 L 303,25 L 302,24 L 302,23 L 301,22 L 301,21 L 300,20 L 300,19 L 295,14 L 295,13 L 294,13 L 293,12 L 291,12 L 290,11 L 289,11 L 288,10 L 285,10 L 284,9 Z" fill="#6750a4"/>
</svg>
